<?xml version="1.0" encoding="UTF-8"?>
<svg version="1.1" xmlns="http://www.w3.org/2000/svg" width="1705" height="527">
<path d="M0 0 C3.41774671 0.0056453 6.83548844 0.00846264 10.25323868 0.0110817 C42.16718206 0.04662943 73.97223019 0.29282086 105.78720474 3.06158829 C108.91618046 3.33336942 112.04596372 3.5941721 115.17593765 3.85419083 C211.64112663 11.9617454 307.56745705 29.40207412 399.7399025 59.31805801 C400.94054337 59.70643845 400.94054337 59.70643845 402.16543961 60.10266495 C448.20647473 75.0275059 492.9753326 93.25236019 536.37369156 114.65839005 C539.60334325 116.2507292 542.83908206 117.83007097 546.07584 119.40790176 C559.93226422 126.20359345 573.39142735 133.57649558 586.7399025 141.31805801 C587.90126724 141.98683975 587.90126724 141.98683975 589.0860939 142.66913223 C614.23952698 157.15951527 638.9249181 172.84629606 661.76187515 190.78436661 C664.44042645 192.86121914 667.16748487 194.86904236 669.89542007 196.88031387 C677.02033321 202.14074776 683.81213816 207.67355126 690.48209 213.49774551 C693.48702213 216.11884243 696.5693313 218.63224465 699.6774025 221.13055801 C703.33542872 224.09869333 706.72027489 227.16622984 709.98209 230.56122208 C711.62648654 232.20470507 713.32097919 233.69336151 715.0992775 235.18915176 C720.82729012 240.16854633 726.14002704 245.56888321 731.49454117 250.94232559 C733.29852335 252.75166734 735.10778914 254.55560121 736.91763687 256.35907364 C742.73848911 262.17626969 748.43301012 268.02148484 753.7399025 274.31805801 C754.68854392 275.40173736 755.63902036 276.48381354 756.591465 277.56415176 C764.39246219 286.50740305 771.65780535 295.79820637 778.7399025 305.31805801 C779.28292007 306.04541153 779.82593765 306.77276505 780.38541031 307.52215958 C788.7502907 318.76976762 796.49554419 330.31824471 803.7399025 342.31805801 C804.47225113 343.5292128 804.47225113 343.5292128 805.21939468 344.76483536 C838.73183362 400.66676464 856.7399025 462.15270382 856.7399025 527.31805801 C294.0899025 527.31805801 -268.5600975 527.31805801 -848.2600975 527.31805801 C-848.2600975 498.28141029 -848.2600975 498.28141029 -847.0725975 489.38055801 C-846.9395018 488.32102921 -846.8064061 487.2615004 -846.66927719 486.16986465 C-841.3674351 445.93457644 -829.18916084 407.68472672 -811.2600975 371.31805801 C-810.79990219 370.38380997 -810.33970688 369.44956192 -809.86556625 368.48700333 C-786.83436064 322.20888197 -753.84429968 281.87850446 -717.5100975 245.44305801 C-716.96648575 244.89676743 -716.42287399 244.35047684 -715.86278915 243.78763199 C-709.84178408 237.74415582 -703.75929196 231.85170183 -697.2600975 226.31805801 C-695.65241378 224.86360284 -694.04770036 223.40584907 -692.4475975 221.94305801 C-687.19833867 217.21234299 -681.76450755 212.74722108 -676.2600975 208.31805801 C-675.13874449 207.40431359 -674.01766239 206.49023662 -672.89681625 205.57587051 C-658.49626445 193.88082926 -643.51817256 182.9637873 -628.14242172 172.58856583 C-626.31486871 171.3550268 -624.49245106 170.11417673 -622.67025375 168.87274551 C-594.73754449 149.94222745 -565.33768873 133.54257656 -535.2600975 118.31805801 C-533.73402321 117.54077832 -532.20797631 116.76344483 -530.6819725 115.98602676 C-527.56158959 114.40360258 -524.42827581 112.84960765 -521.28548813 111.31219864 C-519.84952423 110.60737161 -518.416184 109.89718784 -516.98470688 109.18329239 C-486.68434515 94.09327904 -455.12956992 81.65682213 -423.2600975 70.31805801 C-422.51175644 70.05077896 -421.76341537 69.78349991 -420.99239731 69.50812149 C-384.33792083 56.42574349 -347.0712412 45.5203553 -309.2600975 36.31805801 C-308.12402054 36.04088943 -308.12402054 36.04088943 -306.96499252 35.75812149 C-242.09638059 19.96730032 -176.08444934 9.69790067 -109.5725975 4.06805801 C-108.22723923 3.95235962 -108.22723923 3.95235962 -106.854702 3.83432388 C-99.99457045 3.25271644 -93.1302221 2.7653653 -86.2600975 2.31805801 C-85.29399551 2.25416067 -85.29399551 2.25416067 -84.30837631 2.18897247 C-56.20652048 0.3413545 -28.15701495 -0.04725442 0 0 Z " fill="#EF7B00" transform="translate(848.2600975036621,-0.3180580139160156)"/>
</svg>
